<?xml version="1.0" standalone="no"?>
<!DOCTYPE svg PUBLIC "-//W3C//DTD SVG 20010904//EN"
 "http://www.w3.org/TR/2001/REC-SVG-20010904/DTD/svg10.dtd">
<svg version="1.0" xmlns="http://www.w3.org/2000/svg"
 width="933.000000pt" height="1145.000000pt" viewBox="0 0 933.000000 1145.000000"
 preserveAspectRatio="xMidYMid meet">
<metadata>
Created by potrace 1.16, written by Peter Selinger 2001-2019
</metadata>
<g transform="translate(0.000000,1145.000000) scale(0.100000,-0.100000)"
fill="#000000" stroke="none">
<path d="M3235 10938 c-38 -13 -283 -121 -350 -153 -28 -14 -80 -52 -117 -85
-37 -33 -93 -72 -125 -86 -103 -45 -319 -197 -391 -274 -46 -48 -60 -78 -77
-160 -19 -88 -19 -170 0 -325 11 -94 12 -122 2 -131 -7 -6 -48 -35 -92 -65
-72 -49 -143 -99 -185 -132 -9 -7 -42 -32 -75 -56 -137 -102 -342 -284 -504
-450 -703 -716 -1108 -1555 -1162 -2403 -31 -500 83 -1007 321 -1420 40 -69
146 -231 175 -267 7 -9 37 -45 66 -81 76 -95 281 -295 382 -374 48 -37 87 -70
87 -73 0 -3 -16 -28 -36 -56 -49 -68 -129 -227 -154 -307 -34 -106 -44 -198
-32 -297 21 -170 75 -288 183 -400 177 -183 261 -226 494 -259 100 -15 194
-15 370 -1 35 2 35 1 9 -93 -27 -95 -24 -247 5 -321 82 -211 310 -367 501
-343 32 4 63 -1 104 -15 79 -28 179 -28 274 0 40 12 75 19 78 16 10 -10 25
-278 24 -432 -1 -281 6 -530 17 -595 7 -36 17 -128 23 -205 29 -349 62 -478
163 -632 25 -37 66 -89 93 -115 64 -62 189 -132 292 -165 204 -64 431 6 586
180 31 34 70 90 87 124 18 35 35 63 39 63 4 0 13 -19 21 -42 15 -45 78 -136
126 -180 22 -22 43 -29 89 -34 95 -10 162 9 220 62 82 74 203 150 324 202 63
27 207 89 318 136 112 48 227 98 255 111 279 128 665 274 847 320 30 8 98 25
150 38 52 13 185 41 295 61 110 21 279 53 375 71 233 45 300 55 393 58 76 2
78 2 103 -30 34 -44 110 -67 167 -52 51 14 79 45 107 119 24 65 60 102 112
118 18 6 89 13 158 16 143 6 291 29 368 58 115 43 180 126 202 261 10 57 9 75
-5 120 -30 95 -82 135 -255 196 -151 52 -210 79 -209 94 0 7 19 28 43 47 136
112 240 309 266 505 32 241 -96 494 -303 599 -50 25 -58 33 -68 69 -30 112
-148 300 -234 372 -69 58 -159 125 -167 125 -5 0 -8 7 -8 15 0 8 4 15 8 15 16
0 134 124 172 180 75 111 126 229 159 370 17 71 20 120 20 295 0 240 -11 290
-83 387 -47 64 -150 143 -231 178 -56 23 -73 25 -240 27 -99 1 -207 -3 -240
-8 -98 -16 -215 -80 -297 -163 l-71 -71 -39 76 c-24 48 -61 101 -98 139 l-60
62 63 72 c474 536 801 1175 926 1816 68 345 68 761 0 1079 -164 768 -644 1382
-1374 1756 -358 183 -809 312 -1257 360 -83 8 -162 23 -210 39 -42 14 -121 33
-177 42 -92 14 -110 14 -207 0 -59 -9 -188 -36 -288 -60 -99 -24 -230 -52
-289 -61 l-109 -16 -76 36 c-77 36 -138 79 -222 154 -43 38 -303 200 -389 242
-43 21 -108 24 -156 7z m170 -77 c65 -29 205 -123 316 -212 132 -105 229 -189
229 -198 0 -4 -28 -15 -62 -25 -326 -95 -699 -282 -1008 -505 -183 -132 -403
-341 -544 -516 l-49 -60 7 115 c6 111 2 171 -26 350 -7 47 -13 135 -13 195 0
105 2 114 34 179 77 156 269 296 468 342 37 9 105 27 150 40 44 13 118 31 164
40 85 16 145 40 169 69 21 25 5 28 -67 12 -37 -9 -95 -19 -128 -22 -33 -4
-104 -17 -157 -31 -53 -13 -105 -24 -115 -24 -33 1 19 34 124 80 139 61 207
96 262 135 26 19 58 39 72 44 40 16 131 12 174 -8z m1650 -296 c172 -45 305
-191 336 -370 42 -244 -98 -653 -329 -960 -119 -158 -278 -315 -318 -315 -6 0
-17 15 -24 33 -7 17 -27 68 -45 112 -19 44 -36 92 -39 107 -6 25 -3 28 33 38
27 7 41 17 45 33 8 29 8 211 0 231 -6 17 -48 30 -125 41 -45 6 -47 8 -54 43
-3 20 -9 47 -12 60 -7 29 7 28 73 -4 57 -28 87 -29 92 -3 2 12 -16 26 -60 47
-66 31 -269 102 -294 102 -8 0 -14 4 -14 9 0 4 62 11 138 15 143 8 171 16 137
43 -28 21 -313 11 -440 -16 -369 -77 -720 -255 -1086 -549 -162 -130 -256
-225 -324 -327 -67 -100 -77 -112 -142 -155 -76 -51 -95 -92 -101 -214 -12
-274 106 -399 388 -412 141 -7 150 -9 150 -38 0 -22 -6 -26 -57 -36 -32 -6
-110 -24 -173 -40 -242 -63 -347 -73 -448 -44 -89 26 -135 63 -189 153 -105
174 -128 455 -58 696 100 345 470 774 923 1069 298 195 606 340 1012 478 255
86 521 150 755 181 74 10 196 6 250 -8z m-686 -871 c61 -18 88 -47 102 -109
16 -72 9 -85 -44 -85 -24 0 -48 -5 -55 -12 -14 -14 -16 -116 -2 -173 12 -52
34 -69 125 -96 41 -12 79 -27 84 -33 8 -10 31 -104 31 -126 0 -14 -77 -22
-100 -10 -12 6 -30 32 -41 57 -28 66 -43 52 -40 -41 3 -101 11 -120 74 -178
63 -58 59 -78 -22 -92 -68 -13 -60 -30 16 -34 58 -3 61 -2 92 33 17 20 31 40
31 46 0 5 -25 33 -55 63 -65 63 -70 80 -20 70 25 -4 43 -1 60 10 36 23 45 13
45 -48 0 -35 5 -58 15 -66 8 -7 15 -19 15 -26 0 -8 6 -23 12 -34 16 -26 6 -35
-67 -61 -66 -23 -182 -28 -228 -10 -16 6 -75 11 -133 11 -113 0 -151 10 -213
58 -44 33 -97 34 -156 3 -21 -12 -47 -21 -57 -21 -39 0 -33 -32 13 -72 60 -53
100 -73 194 -93 116 -25 188 -29 253 -15 54 11 60 10 110 -15 61 -31 132 -44
201 -37 71 6 72 -10 11 -132 -45 -90 -51 -111 -60 -197 -5 -54 -9 -140 -9
-193 2 -150 -35 -206 -169 -257 -158 -59 -427 -64 -586 -10 -40 14 -73 17
-156 13 l-105 -4 -125 47 c-153 58 -197 79 -233 114 -40 37 -57 73 -57 124 0
30 -8 56 -28 88 -44 68 -52 72 -129 64 -135 -13 -279 37 -328 114 -56 90 -80
225 -51 295 53 127 197 171 334 102 28 -14 56 -26 62 -26 24 0 100 -44 115
-66 9 -14 21 -53 26 -87 13 -80 29 -104 81 -118 79 -21 215 12 232 57 15 39
-16 124 -77 213 -46 68 -47 115 -2 246 32 92 38 123 37 190 0 92 -19 152 -63
208 -17 21 -29 39 -28 41 15 10 248 136 304 164 83 40 266 112 348 136 123 36
316 40 416 10z m1235 -90 c306 -55 548 -133 797 -259 123 -61 308 -175 351
-215 12 -11 37 -30 55 -43 60 -40 257 -250 327 -347 117 -163 223 -405 261
-594 20 -103 28 -183 19 -189 -5 -3 -42 -7 -83 -8 l-75 -4 -18 105 c-80 451
-352 817 -803 1082 -253 149 -596 264 -955 319 -80 12 -147 24 -149 25 -2 2 6
24 18 49 11 24 21 47 21 49 0 3 4 16 10 30 12 34 39 34 224 0z m-3642 -1051
c-3 -107 -3 -108 -33 -129 -116 -82 -395 -364 -519 -524 -19 -25 -39 -49 -43
-55 -91 -112 -259 -397 -318 -540 -204 -501 -206 -930 -4 -1340 122 -247 304
-448 560 -619 98 -66 363 -202 438 -226 48 -15 47 -26 -3 -33 -23 -3 -82 -18
-132 -33 l-91 -28 -95 49 c-101 53 -301 182 -367 237 -524 439 -732 1030 -589
1676 115 521 462 1056 974 1504 106 92 213 177 220 173 3 -2 4 -52 2 -112z
m4477 -533 c47 -23 78 -59 111 -128 l25 -52 51 0 c43 0 61 -6 112 -40 36 -24
65 -52 72 -70 14 -35 30 -39 30 -9 0 21 -54 81 -99 110 l-25 16 49 16 c35 12
83 17 171 17 l121 0 71 -75 c66 -69 76 -85 84 -139 4 -28 22 -25 26 4 7 49
-17 97 -75 150 -52 48 -56 53 -39 65 26 20 128 34 246 35 139 2 143 1 160 -10
32 -21 -17 -30 -167 -30 -88 0 -153 -4 -153 -9 0 -19 42 -22 223 -19 189 3
217 -2 217 -38 0 -11 -21 -14 -92 -14 -103 0 -244 -22 -262 -40 -8 -8 8 -9 69
-3 103 10 254 10 328 0 48 -7 60 -13 69 -33 15 -32 6 -39 -33 -25 -64 22 -376
8 -402 -18 -5 -5 76 -8 180 -7 170 1 192 -1 228 -19 26 -13 41 -28 43 -42 6
-39 -34 -46 -264 -48 -164 -2 -217 -6 -240 -18 -49 -25 -230 -51 -359 -51
-120 0 -122 0 -209 42 -5 3 -6 -3 -3 -12 5 -12 0 -16 -19 -16 -38 0 -24 -23
22 -36 21 -6 38 -16 37 -22 -1 -5 -27 -104 -58 -218 -119 -450 -301 -793 -542
-1025 -81 -79 -101 -90 -149 -87 -23 1 -39 -3 -44 -12 -30 -53 -34 -54 -69
-25 -30 26 -36 27 -100 21 -105 -11 -117 10 -108 183 9 172 38 227 278 521 47
58 110 139 139 180 29 41 72 98 95 125 65 78 104 139 180 285 l70 135 47 -3
c25 -2 49 2 53 7 3 6 -16 24 -44 41 -64 39 -87 92 -78 177 l6 57 -64 67 c-55
57 -65 72 -65 103 0 23 6 39 18 45 28 17 90 13 131 -9z m-1639 -232 c19 -14
50 -65 84 -134 30 -62 66 -130 80 -152 24 -38 74 -173 140 -378 18 -56 45
-123 60 -149 14 -26 26 -51 26 -56 0 -15 -152 150 -204 220 -26 36 -68 107
-92 156 -65 133 -206 496 -199 513 8 21 67 9 105 -20z m-266 -7 c22 -25 46
-113 47 -175 2 -108 -97 -219 -116 -129 -20 93 -29 115 -52 124 -30 11 -29 18
12 75 19 27 44 66 55 87 23 42 30 45 54 18z m462 -12 c33 -9 64 -29 116 -76
39 -36 94 -76 123 -88 29 -13 80 -47 114 -75 63 -52 226 -233 248 -274 11 -21
9 -25 -24 -47 -47 -31 -87 -105 -164 -299 -62 -157 -83 -200 -98 -200 -12 0
-61 114 -68 158 -3 20 -19 66 -36 102 -16 36 -47 119 -68 185 -22 66 -46 134
-53 150 -8 17 -29 66 -46 110 -17 44 -48 109 -69 145 -58 98 -91 167 -91 189
0 30 44 38 116 20z m-1507 -19 c29 -5 98 -10 153 -10 54 0 127 -6 161 -14 34
-8 88 -20 120 -26 43 -9 61 -17 68 -33 6 -12 33 -40 61 -62 27 -22 54 -48 59
-57 8 -15 5 -18 -17 -18 -35 0 -153 -77 -231 -151 -34 -33 -70 -59 -81 -59
-20 0 -92 50 -151 104 -77 71 -206 256 -226 324 -6 20 -4 23 12 18 10 -3 42
-10 72 -16z m-529 -52 c45 -127 205 -397 315 -533 l57 -70 -6 -91 c-9 -150
-62 -347 -131 -484 -41 -82 -122 -187 -179 -232 -93 -74 -226 -128 -314 -128
-45 0 -45 0 -24 19 32 27 52 83 52 142 0 29 5 67 12 85 10 28 9 36 -5 52 -22
24 -15 60 48 271 25 84 43 156 40 160 -10 9 -55 -47 -55 -68 0 -10 -6 -24 -14
-30 -10 -9 -25 0 -67 44 -56 57 -69 65 -69 40 0 -27 50 -92 85 -111 39 -21 42
-35 21 -91 -8 -21 -20 -58 -26 -83 -26 -102 -70 -110 -283 -56 -224 58 -381
110 -472 159 -71 38 -80 61 -40 113 15 20 30 54 32 77 3 23 25 80 48 127 23
47 57 130 74 184 73 224 101 254 354 376 269 130 294 140 392 166 132 34 129
35 155 -38z m1468 35 c-14 -16 -38 -47 -52 -71 -15 -23 -38 -48 -51 -54 -25
-11 -39 -43 -50 -113 -10 -65 -21 -74 -39 -31 -8 20 -43 63 -77 94 -113 103
-139 130 -139 140 0 5 64 11 158 14 126 4 167 9 207 26 68 27 73 26 43 -5z
m-44 -169 c8 -3 27 -37 41 -74 23 -59 30 -70 55 -75 16 -4 39 -4 50 0 21 7 50
53 50 79 0 16 18 31 26 23 15 -15 46 -194 48 -272 1 -73 -3 -96 -18 -122 -29
-47 -58 -56 -198 -61 l-127 -4 -5 23 c-10 53 -27 249 -22 257 3 5 10 47 15 93
15 131 30 154 85 133z m3018 -49 c3 -3 -5 -52 -18 -108 -132 -559 -481 -1077
-1048 -1555 -142 -120 -336 -257 -346 -245 -68 82 -90 113 -90 124 1 8 22 27
48 44 212 133 574 462 764 695 238 292 434 669 498 955 12 53 22 65 56 65 12
0 27 7 34 15 12 14 90 22 102 10z m-3219 -49 c29 -32 67 -140 67 -191 0 -22 7
-72 16 -111 10 -39 14 -79 11 -88 -6 -14 -36 -16 -266 -16 -143 0 -271 4 -285
10 -14 5 -32 20 -42 34 -17 28 -96 274 -92 288 2 5 28 -13 58 -40 62 -55 102
-72 142 -61 35 9 53 22 139 100 89 80 122 98 182 99 38 0 53 -5 70 -24z m1557
-304 c34 -35 47 -91 32 -140 -13 -41 -7 -58 14 -41 23 19 33 43 44 100 12 63
24 79 60 79 46 0 70 -40 70 -114 0 -121 -19 -160 -165 -341 -42 -52 -122 -192
-147 -257 -14 -39 -19 -76 -19 -164 0 -111 -5 -131 -33 -121 -10 4 -10 19 2
79 26 130 -15 208 -108 208 -41 0 -51 -4 -71 -30 -13 -16 -28 -30 -34 -30 -13
0 -75 195 -75 236 0 22 8 36 30 52 33 25 62 77 91 161 19 55 128 267 158 307
35 47 111 55 151 16z m-3898 -451 c4 -12 129 -73 203 -99 165 -59 507 -150
604 -160 l54 -5 -6 -56 c-18 -176 -84 -228 -303 -238 l-111 -6 -41 38 c-35 31
-43 34 -48 21 -3 -9 -1 -23 6 -31 16 -20 0 -20 -128 0 -195 29 -311 75 -347
136 -32 54 -28 150 8 212 15 26 30 47 33 47 10 0 83 -41 168 -94 49 -31 106
-61 127 -67 62 -19 98 10 42 33 -130 53 -217 100 -295 161 -45 34 -52 76 -16
101 25 18 45 20 50 7z m113 -551 c139 -24 308 -40 426 -40 l127 0 7 -77 c3
-43 15 -140 26 -216 32 -228 30 -233 -68 -199 -37 13 -110 51 -163 84 -52 33
-129 81 -170 106 -41 25 -92 62 -114 83 -27 28 -47 39 -68 39 -66 0 -138 62
-138 120 0 33 49 110 69 110 3 0 33 -5 66 -10z m3428 -252 c57 -68 143 -172
191 -233 49 -60 101 -126 117 -145 54 -65 25 -85 -32 -22 -60 67 -363 397
-379 412 -8 9 -26 28 -39 43 -24 26 -24 27 -6 47 10 11 24 20 31 20 7 0 60
-55 117 -122z m1323 -553 c82 -48 82 -49 86 -398 3 -302 3 -308 22 -285 10 13
29 44 42 71 30 59 76 104 131 129 53 23 94 17 157 -23 63 -39 89 -94 121 -255
3 -15 18 -23 55 -33 57 -15 70 -31 70 -91 0 -48 -34 -107 -82 -141 -44 -32
-140 -34 -180 -4 -39 30 -73 86 -88 149 -7 31 -17 56 -21 56 -23 0 -142 -224
-170 -318 -8 -27 -27 -56 -52 -79 -36 -32 -44 -35 -83 -30 -54 6 -109 41 -129
83 -8 17 -19 63 -25 103 -14 98 -30 520 -30 795 l0 228 34 34 c42 42 81 44
142 9z m996 -151 l28 -28 30 29 c21 20 42 29 77 32 45 5 51 2 91 -35 48 -45
53 -72 23 -138 -17 -37 -17 -43 -3 -70 24 -43 20 -172 -8 -254 -49 -147 -118
-251 -196 -296 -40 -24 -52 -26 -105 -20 -118 12 -194 62 -224 146 -28 80 -41
238 -26 337 12 87 52 206 78 231 7 8 18 22 23 32 5 10 33 30 62 45 64 32 108
28 150 -11z m-5655 -340 c15 -10 55 -14 124 -14 142 0 255 -24 295 -62 43 -41
60 -98 39 -138 -35 -67 -63 -71 -367 -56 -161 8 -180 7 -205 -9 -29 -18 -192
-185 -193 -197 0 -3 85 -4 189 -1 166 5 193 4 215 -11 36 -23 57 -69 58 -128
1 -45 -2 -54 -27 -74 -18 -14 -49 -25 -80 -29 -80 -9 -516 -11 -556 -2 -34 8
-35 8 -61 -40 -36 -66 -52 -132 -39 -165 30 -79 126 -115 280 -105 70 4 107
13 175 41 105 44 166 47 217 13 61 -41 56 -100 -16 -166 -50 -46 -147 -98
-220 -118 -133 -36 -382 -25 -481 22 -58 28 -161 131 -192 191 -30 60 -38 155
-18 231 34 135 112 254 286 439 147 155 196 215 204 247 9 38 107 100 205 131
79 25 128 25 168 0z m1852 -75 c119 -27 231 -112 284 -213 28 -53 31 -70 31
-136 -1 -96 -24 -147 -100 -230 -107 -114 -308 -242 -456 -289 -21 -7 -38 -18
-38 -26 0 -46 217 -264 351 -351 37 -24 69 -51 73 -60 17 -43 0 -113 -36 -151
-29 -31 -96 -31 -163 1 -105 49 -347 260 -407 355 -11 17 -23 31 -26 31 -6 0
-34 -73 -105 -273 -23 -65 -13 -62 -117 -32 -36 10 -71 14 -102 9 -46 -6 -48
-5 -48 20 0 14 14 59 30 101 17 42 30 80 30 85 0 20 215 556 322 802 l50 117
-27 23 c-32 28 -45 101 -23 131 7 9 65 35 128 56 101 35 126 40 210 40 52 0
115 -4 139 -10z m-1073 -5 c11 -3 38 -31 58 -62 54 -82 48 -108 -60 -286 -47
-78 -108 -179 -136 -226 -90 -152 -258 -519 -258 -564 0 -10 -9 -39 -21 -66
-50 -115 -175 -95 -210 34 -33 120 27 269 333 826 46 85 97 182 111 215 46
102 52 110 87 122 39 13 65 15 96 7z m3483 -162 c78 -39 95 -75 77 -161 -16
-77 -47 -111 -101 -111 -37 0 -85 18 -85 32 0 4 -6 8 -14 8 -25 0 -60 -118
-58 -194 1 -38 4 -71 6 -74 6 -5 78 36 165 95 63 43 111 54 156 37 21 -8 45
-56 45 -89 0 -32 -31 -94 -60 -120 -13 -11 -33 -36 -45 -56 -13 -20 -38 -42
-57 -49 -18 -8 -52 -27 -74 -43 -78 -54 -161 -60 -249 -18 -74 35 -101 61
-129 120 -18 40 -21 64 -20 176 0 121 3 138 35 234 37 114 64 149 147 199 102
59 164 63 261 14z m-1042 -241 c25 -18 46 -45 57 -71 l17 -43 37 34 c20 19 39
37 42 40 3 4 21 16 40 28 38 23 81 27 126 11 32 -11 108 -94 124 -135 6 -14
10 -101 10 -193 1 -131 4 -171 15 -186 28 -36 15 -93 -29 -128 -13 -11 -39
-18 -71 -18 -104 0 -162 75 -173 225 l-7 86 -60 -72 c-175 -211 -174 -209
-208 -208 -60 1 -124 35 -147 78 -15 29 -7 140 21 286 10 55 19 124 19 153 0
60 20 115 47 131 36 21 97 13 140 -18z m-654 -47 c50 -26 228 -154 233 -169 3
-7 -2 -40 -10 -73 -23 -86 -20 -150 7 -203 18 -34 30 -45 52 -47 77 -9 115
-85 78 -159 -22 -47 -71 -73 -137 -73 -65 0 -125 30 -175 87 l-40 45 -84 -84
c-50 -51 -104 -95 -137 -111 -101 -50 -205 -28 -275 57 -47 58 -47 102 4 243
51 143 88 215 173 333 86 120 154 170 231 170 26 0 62 -7 80 -16z m2953 -482
c79 -28 209 -110 277 -177 88 -85 157 -229 157 -326 0 -18 10 -68 21 -111 18
-65 24 -78 38 -72 80 33 158 23 216 -27 95 -84 63 -280 -67 -409 -118 -117
-242 -119 -377 -6 -24 20 -48 35 -53 34 -5 -2 -33 -59 -62 -127 -47 -112 -59
-131 -121 -193 -78 -79 -134 -111 -222 -128 -55 -11 -65 -10 -109 10 -27 12
-71 24 -97 27 -41 5 -57 14 -96 52 -59 57 -83 118 -106 266 -10 61 -22 137
-27 170 -32 204 85 611 243 848 74 110 117 145 211 171 72 19 113 19 174 -2z
m-4692 -153 c26 -21 35 -65 17 -84 -14 -17 -87 -203 -130 -337 -45 -140 -66
-300 -54 -417 7 -71 -5 -91 -57 -91 -45 0 -63 22 -74 94 l-11 67 -54 -46 c-68
-58 -101 -75 -147 -75 -30 0 -45 8 -82 45 l-45 45 6 69 c10 125 108 283 193
311 34 12 101 9 156 -5 26 -7 27 -6 53 81 29 93 86 248 112 299 35 69 69 82
117 44z m1350 -304 c27 -8 63 -15 80 -15 66 0 229 -140 271 -233 68 -148 74
-274 25 -547 -55 -313 -161 -545 -306 -675 -139 -124 -271 -218 -410 -289
-134 -70 -128 -63 -121 -148 3 -40 9 -152 12 -248 3 -96 10 -230 16 -296 13
-142 6 -175 -49 -236 -69 -76 -128 -86 -227 -39 -147 69 -179 161 -216 626 -6
83 -17 177 -24 210 -8 41 -9 71 -2 95 6 21 6 80 2 150 -5 63 -7 174 -6 245 1
72 -3 198 -9 280 -6 83 -12 233 -12 335 0 184 0 186 26 224 30 44 34 92 11
136 -14 27 -13 31 19 79 43 63 70 143 63 185 -3 20 2 47 17 76 19 41 26 46 93
68 l72 24 53 -45 c67 -57 197 -143 245 -163 56 -24 165 -21 208 6 43 27 81 88
95 158 7 28 15 52 18 52 4 0 29 -7 56 -15z m-1009 -49 c79 -52 77 -147 -3
-238 -46 -51 -77 -62 -174 -60 l-88 2 0 -41 c0 -61 14 -79 61 -79 29 0 54 10
94 36 53 35 55 36 80 20 28 -19 31 -35 11 -74 -67 -129 -276 -150 -347 -36
-20 33 -24 52 -24 124 0 77 4 92 36 160 71 147 161 215 272 206 32 -2 69 -11
82 -20z m3572 13 c39 -14 82 -57 99 -99 17 -40 20 -141 5 -197 -5 -21 -15 -78
-21 -128 -21 -157 -87 -390 -146 -512 -24 -50 -44 -95 -44 -99 0 -26 -69 -140
-107 -179 -117 -119 -231 -111 -355 24 -80 87 -190 235 -258 345 -30 49 -83
127 -118 174 -35 46 -70 98 -78 115 -22 42 -28 123 -14 192 16 77 68 132 154
164 57 21 62 21 102 6 79 -30 199 -184 320 -412 22 -40 42 -73 45 -73 3 0 16
37 29 83 96 352 132 448 197 536 44 57 127 84 190 60z m-1384 -441 c92 -33
198 -72 235 -87 l67 -28 11 -164 c14 -204 26 -240 108 -327 l62 -65 75 2 c63
1 80 -2 109 -21 52 -36 75 -90 75 -179 0 -101 -29 -148 -118 -190 -162 -76
-309 -58 -456 55 -33 26 -62 46 -65 46 -3 0 -28 -45 -56 -100 -109 -216 -223
-357 -343 -421 -75 -40 -190 -52 -248 -26 -19 8 -54 22 -79 30 -28 9 -68 36
-108 73 -58 55 -63 63 -74 122 -9 48 -9 100 1 225 21 274 35 349 113 617 14
49 129 287 162 335 87 128 186 181 311 168 28 -3 125 -32 218 -65z m2444 -885
c13 -19 12 -24 -7 -43 -18 -18 -30 -21 -59 -16 -57 9 -67 -5 -86 -124 -50
-327 -54 -340 -89 -340 -35 0 -50 32 -42 89 23 159 45 335 42 338 -1 2 -17 -2
-34 -8 -17 -6 -43 -9 -59 -7 -22 2 -29 9 -31 30 -4 32 17 45 128 77 41 13 80
24 85 26 6 2 39 3 74 2 53 -2 66 -6 78 -24z m924 -49 c8 -10 21 -13 36 -9 15
3 29 -1 44 -16 18 -18 19 -23 6 -42 -7 -12 -17 -37 -20 -56 -14 -71 -81 -144
-144 -157 -45 -9 -93 35 -93 85 0 101 66 211 127 211 17 0 36 -7 44 -16z
m-217 -36 c44 -62 -12 -140 -66 -92 -17 16 -19 15 -33 -19 -15 -37 -20 -77 -9
-77 4 0 22 14 41 30 37 33 64 38 82 16 10 -11 9 -21 -2 -43 -24 -44 -58 -71
-110 -84 -44 -11 -51 -10 -75 8 -25 19 -27 26 -26 89 1 118 56 194 140 194 33
0 46 -5 58 -22z m-493 -26 c8 -24 14 -27 43 -24 51 6 91 -33 90 -87 -2 -61
-40 -112 -111 -148 -63 -32 -63 -31 -80 -152 -9 -60 -31 -84 -60 -65 -16 10
-18 26 -16 115 2 107 44 351 65 376 20 24 58 16 69 -15z m238 -28 c25 -18 25
-23 3 -169 -10 -63 -17 -75 -48 -75 -41 0 -50 36 -35 137 18 124 30 141 80
107z m-399 -62 c21 -17 21 -20 9 -107 -16 -117 -23 -135 -52 -135 -35 0 -47
19 -47 77 0 45 13 132 25 171 6 18 39 15 65 -6z m-925 -22 c23 -9 27 -15 23
-40 -4 -28 -2 -30 28 -30 68 0 72 -56 6 -80 -55 -19 -66 -39 -59 -103 8 -60
11 -65 36 -43 29 26 55 17 59 -20 2 -25 -3 -37 -28 -58 -37 -31 -64 -33 -106
-7 -25 15 -34 31 -44 70 -6 27 -9 55 -5 61 11 18 -5 50 -25 50 -11 0 -24 8
-29 19 -12 21 -1 38 40 64 19 11 28 27 32 58 3 24 13 49 23 56 21 16 17 15 49
3z m297 -47 c24 -21 24 -88 -1 -135 -18 -37 -18 -37 3 -40 13 -2 22 -12 24
-25 7 -48 -67 -113 -129 -113 -62 1 -89 39 -89 126 0 76 18 130 56 170 26 28
39 34 74 34 26 0 51 -7 62 -17z m-628 -183 l12 -30 29 30 c28 30 66 39 93 22
6 -5 19 -35 27 -67 9 -32 20 -64 26 -71 14 -17 8 -55 -12 -67 -9 -5 -28 -7
-43 -3 -21 5 -29 16 -38 51 -7 25 -15 45 -18 45 -7 0 -62 -73 -93 -123 -15
-24 -22 -27 -46 -22 -21 4 -30 2 -34 -9 -8 -22 -76 -21 -106 0 -22 16 -24 16
-33 0 -20 -36 -71 -86 -93 -92 -13 -3 -37 2 -55 11 l-33 17 6 66 c9 122 68
232 123 232 13 0 44 -10 69 -22 41 -20 45 -25 45 -59 0 -34 30 -89 49 -89 11
0 31 102 31 155 0 50 4 55 47 55 28 0 36 -5 47 -30z m-568 -123 l17 -23 23 23
c13 13 33 23 45 23 22 0 59 -26 59 -41 0 -4 -22 -30 -48 -57 -53 -55 -67 -83
-77 -154 -7 -56 -32 -77 -70 -60 -20 9 -23 20 -30 106 -6 85 -4 125 11 178 4
14 17 22 46 27 4 0 15 -9 24 -22z m-125 -94 c13 -35 1 -139 -22 -185 -21 -42
-63 -78 -91 -78 -31 0 -73 27 -86 55 -7 14 -12 62 -12 105 0 67 3 83 21 101
11 11 30 19 42 17 20 -3 22 -9 25 -91 2 -64 6 -87 15 -84 15 5 28 72 21 108
-3 14 0 38 5 52 15 38 67 39 82 0z m-309 -100 c16 -15 29 -41 33 -64 6 -32 11
-39 30 -39 48 0 56 -58 14 -96 -17 -15 -24 -16 -53 -6 -43 16 -43 16 -50 -13
-9 -36 -45 -65 -80 -65 -57 0 -78 35 -78 127 0 49 6 75 28 120 44 88 90 99
156 36z m-318 21 c9 -4 16 -18 16 -34 0 -27 2 -28 33 -23 23 3 37 0 46 -11 20
-24 9 -47 -31 -69 -35 -17 -38 -22 -38 -63 0 -66 31 -120 46 -80 8 21 34 28
50 15 20 -17 17 -57 -7 -90 -17 -24 -27 -29 -64 -29 -36 0 -48 5 -68 30 -14
17 -31 54 -37 85 -10 48 -14 55 -36 55 -14 0 -24 -6 -24 -14 0 -8 -10 -27 -23
-42 -28 -32 -67 -27 -67 9 -1 18 -5 15 -20 -15 -11 -20 -18 -43 -15 -50 3 -7
29 -19 57 -26 61 -14 81 -30 81 -66 0 -48 -63 -96 -126 -96 -60 0 -77 52 -22
66 31 8 33 24 2 24 -13 0 -35 13 -50 28 -82 86 43 301 143 247 21 -11 28 -10
52 8 24 18 28 27 28 72 0 67 23 89 74 69z m-659 -238 c36 -15 65 -59 65 -99 0
-45 -31 -126 -70 -184 l-39 -58 36 -17 c20 -9 72 -22 115 -29 87 -14 108 -31
87 -70 -10 -20 -17 -21 -93 -16 -44 3 -101 12 -125 21 -24 9 -46 14 -48 12 -3
-2 2 -36 10 -75 17 -85 9 -104 -43 -99 -33 3 -34 4 -46 68 -19 100 -43 258
-51 328 -5 55 -9 65 -30 73 -31 12 -29 33 7 79 56 70 149 98 225 66z m293 -52
c17 -12 22 -25 22 -60 0 -25 -7 -58 -14 -73 -14 -27 -14 -28 8 -24 52 10 56
-61 6 -117 -32 -36 -93 -50 -129 -31 -48 26 -80 137 -60 214 21 86 107 133
167 91z"/>
<path d="M3980 9602 c-64 -37 -256 -174 -336 -239 -40 -32 -41 -35 -53 -126
-7 -50 -22 -113 -33 -139 -18 -39 -19 -52 -10 -73 15 -34 34 -25 123 55 40 36
116 90 170 120 53 30 128 82 166 116 37 34 83 73 101 88 37 32 41 63 16 145
-15 53 -43 91 -67 91 -7 0 -41 -17 -77 -38z"/>
<path d="M4080 9039 c-56 -47 -115 -72 -155 -65 -45 9 -77 -8 -73 -37 3 -19 9
-22 50 -20 74 2 145 30 194 77 69 66 55 106 -16 45z"/>
<path d="M2823 8683 c-28 -19 -29 -39 -3 -55 27 -17 25 -27 -10 -75 -38 -52
-47 -94 -25 -116 26 -26 35 -20 35 23 0 33 7 48 35 77 29 30 37 34 50 23 8 -7
15 -21 15 -32 0 -42 46 -118 71 -118 24 0 18 35 -19 112 -22 46 -56 99 -76
117 -20 19 -36 41 -36 48 0 17 -10 16 -37 -4z"/>
<path d="M3708 8643 c-26 -4 -88 -63 -88 -84 0 -6 7 -26 16 -45 13 -27 19 -32
30 -23 8 6 14 19 14 29 0 28 39 70 66 70 24 0 32 -14 14 -25 -6 -4 -10 -67
-10 -158 0 -172 12 -216 70 -257 31 -22 36 -23 114 -12 44 6 117 23 161 38 72
24 94 27 218 27 153 -1 160 3 133 56 -19 36 -32 138 -22 175 6 24 11 26 44 24
33 -3 37 -1 37 21 0 23 0 23 -139 27 -153 4 -204 14 -358 72 -57 21 -119 45
-138 52 -37 14 -118 21 -162 13z m241 -98 c50 -19 101 -41 113 -49 37 -24 110
-36 222 -37 l105 -1 -6 -63 c-4 -47 -1 -74 11 -104 9 -23 16 -44 16 -46 0 -3
-35 -5 -77 -5 -91 0 -232 -21 -355 -52 l-87 -22 -28 20 c-27 20 -72 118 -60
131 4 3 32 9 64 13 50 6 54 8 30 14 -15 5 -37 6 -49 3 -34 -9 -58 10 -58 47 0
42 19 146 31 168 13 24 24 23 128 -17z"/>
<path d="M7614 4885 c-13 -53 12 -195 35 -195 13 0 33 45 41 93 5 29 12 66 15
84 7 30 6 31 -28 31 -20 0 -40 3 -46 6 -6 4 -13 -5 -17 -19z"/>
<path d="M3725 4483 c-20 -43 -46 -99 -56 -125 -10 -27 -32 -74 -48 -105 -15
-32 -32 -68 -35 -81 -7 -21 -6 -21 21 -11 58 22 190 92 236 125 154 112 137
244 -34 269 l-47 7 -37 -79z"/>
<path d="M7460 3353 c-45 -51 -67 -106 -86 -210 -19 -110 -9 -303 17 -303 16
0 45 73 73 180 15 58 34 127 42 154 27 94 38 184 24 201 -19 23 -35 18 -70
-22z"/>
<path d="M2458 3133 c-38 -39 -71 -103 -83 -160 -6 -30 -4 -33 17 -33 48 0
161 93 179 147 9 28 8 38 -5 58 -25 38 -64 33 -108 -12z"/>
<path d="M3880 3036 c-63 -18 -113 -40 -127 -57 -17 -21 -38 -274 -37 -444 1
-82 6 -228 10 -324 l9 -173 60 45 c70 53 141 121 207 198 106 124 148 268 148
502 -1 140 -30 201 -118 246 -46 24 -86 25 -152 7z"/>
<path d="M5169 2523 c-36 -22 -54 -55 -82 -154 -28 -97 -41 -299 -19 -299 12
0 104 176 141 270 22 56 34 104 35 140 1 52 0 55 -24 57 -14 2 -37 -4 -51 -14z"/>
</g>
</svg>
